<svg xmlns="http://www.w3.org/2000/svg" viewBox="0 0 331 100.78364282963082" class="css-1j8o68f"><defs id="SvgjsDefs5842"></defs><g id="SvgjsG5843" featurekey="symbolGroupContainer" transform="matrix(0.9842152473421635,0,0,0.9842152473421635,0.022667347747590175,0)" fill="#0bcc8b"><g xmlns="http://www.w3.org/2000/svg"><path d="M1.4 6.1zm-.3 86zm.5-25zm73 34.4zm-6.1.4zM76.8.5zm-69.1.8zM101.9 3a.7.7 0 0 1-.1-.4V2a.4.4 0 0 0-.1-.2l-.7-1 .7.7h-.2L101 1h-.8c.1 0 .1.1 0 .1h-.8L97.7.9h-.1l.4-.2c.1-.1.1-.1 0-.2h-1.2l-.5.2h-1.7c-.6-.1-.9.2-.7.5h.1c-.2.1-.5.1-.6.3l-.3.3h-.5c.2-.3.1-.4-.4-.4l-1-.2-.8-.5-1 .3h-.1a1.2 1.2 0 0 1-1.1 0L87 .8h-.6c-.1.1-.1.1 0 .2s.1.2-.1.3h-.2l.2.2h-.8v.1a2 2 0 0 0-.1-.4L85 1h-2.8l-.5-.2a2.4 2.4 0 0 0-1.3-.2h-1.1a1.4 1.4 0 0 0-.9.1h-.3l.4.2a.2.2 0 0 1 .1.2h-.3l-.8-.2a1.4 1.4 0 0 1-.8-.3c-.1-.1-.1-.2.1-.2h-3l-.7.2a.7.7 0 0 0-.6.3h-1.9l-.5-.1-.3-.2h-.4c-.1.1.1.2.2.3s.1.1-.1.2h-.3c.1.1.1.2 0 .2h-.5c-.3 0-.5-.1-.7-.2a2.4 2.4 0 0 0-.8-.5h-.7l.4.2c.1 0 .1 0 0 .1h-.1c-.2 0-.4-.1-.4-.2h-.8v.2a1.4 1.4 0 0 1-1-.3V.4h-.1l-.5.5h-.5c-.1-.1-.1-.1.1-.2l.9-.3H63a1.1 1.1 0 0 0-1.1-.1H58v.3h.2c.5.1.5.1.3.2s-.3.3-.3.5h-1.4c-.3 0-.5-.2-.2-.3s.6-.3.5-.6V.2h-2.5l-1 .5-.3.4h-.5c0-.2 0-.4.2-.6s0-.1 0-.2h-1.2l.5.4h-.4c-.4 0-.4 0-.5.2h-.7a.4.4 0 0 0-.4-.2h-1.1v.2s0 .1-.1.2h-.4a.7.7 0 0 0-.6.2h-.7c.3-.1.3-.3 0-.4a1.3 1.3 0 0 1-.7-.3h-.3c-.2 0-.3-.1-.2-.2s-.1-.3-.3-.3h-.5c-.3.1-.3.3 0 .5s.2.1.1.2 0 .1 0 .1l.5-.2h-.6l-.8-.2c-.2-.1-.3-.2-.1-.3h.1l-.5.3h-.5c-.2 0-.3.1-.2.2h-1.1l-.2.2a1.1 1.1 0 0 1-.9.3h.1c.1-.1.1-.2-.1-.2s-1 0-.9.3.1.2 0 .3l-.2.2-.5.2H36l-1.1-.5h-.4l-.3-.6V.7h-.5c-.2 0-.2.1-.2.2a1.7 1.7 0 0 0-1.5.4l-.2.2h-2.9c.4-.1.5-.2.2-.3h-.3v.4h-.7l.7-.2a1 1 0 0 0-.8-.1l-1 .1a1.4 1.4 0 0 0-1.2-.1c-.2 0-.3 0-.3-.2s0-.2-.3-.2a2.1 2.1 0 0 0-1.1.2h-.7l-1-.1v.4c.1 0 .1 0 0 0V1h-.1c-.3-.2-.7-.3-.8-.6h-1L19.2.1h-.5l-.4.3H17l-.3.3h-.3c-.3-.2-.9-.1-1.3-.2h-.8c-.3 0-.5.2-.4.3l.2.3h.9c.2 0 .2.1.1.2h-.7l-.2-.2v.3h-.4v.1h-.5l-.6-.3a2.6 2.6 0 0 0-1.4-.5c-.2 0-.5.1-.5.2h.7l-.3.5c0 .1 0 .1.1.1H9.1v.1l-.5-.2a1.2 1.2 0 0 0-.8 0H6.7a1.2 1.2 0 0 0-.9.1 2.3 2.3 0 0 1-1.2.1c-.1-.1-.1-.2.2-.2h-.2V.8h.2c0 .1 0 .2-.1.3l.7-.1.3-.2c-.1-.2.2-.3.1-.5h-.3c-.2.3-.3.3-.7.2L3.6.3H2.5L.9.6l.2 1.2v.4c.2-.3.4.1.6-.3l.7-.7v.1l-.6.6.2.2a.5.5 0 0 1 .2.5 2.3 2.3 0 0 1-.1.7 2.5 2.5 0 0 0-.3.9V5c0 .3-.1.4-.3.5h-.2c-.1 0-.1.2-.1.4v.2l.2.2a.5.5 0 0 1 0 .4c-.1.2-.2.3-.3.3s-.3.1-.3.6a.8.8 0 0 0 0 .2 1.1 1.1 0 0 0 0 .3h.1l.2-.3h.1a.6.6 0 0 1 0 .3 1.3 1.3 0 0 1-.1.4C1 8.8.8 9 .6 9v.2c.1.1.2.5.3.5s.1.3.1.6.1.6.3.4h.3c.1.1.1.1.1.6-.1 0-.1.1-.1.3v.7h-.3a1.2 1.2 0 0 0-.4-.7H.8a1.2 1.2 0 0 0 0 .3 1.7 1.7 0 0 0 .3.7.7.7 0 0 1 0 .6 1.1 1.1 0 0 0-.1.6l.5.5c-.1.3-.2.3-.3.6a1.8 1.8 0 0 1-.3.8c-.1.1-.1.7 0 .7s.3.8.6.9.1.3 0 .4-.1.2-.2.2h-.1c-.2-.1-.2-.1-.2.4H.8c-.1 0-.1.1-.1.2v-.1l.2-.3.4.8v1.5a2 2 0 0 1-.2 1c-.1 0 0-.1 0-.2s0-.3-.1-.3l-.2.2c-.2.1-.3.5-.1.8l.3.8a.4.4 0 0 1 0 .1v.2l-.2-.2c0-.1-.1-.1-.1 0a.9.9 0 0 0 0 .3 3.2 3.2 0 0 0 .1.4c0 .1.1.3.2.2l.3-.2c.1-.1.2-.2.3-.1a.8.8 0 0 1 .2.6l-.3.4a1.7 1.7 0 0 0-.2.6H1c-.1.2 0 .5-.1.7l-.2.3a.5.5 0 0 0 0 .3l.4.6h.1c.2.1.2-.3.3-.5h.3a2 2 0 0 0 .3.8.5.5 0 0 1 0 .4L2 28h-.1a.6.6 0 0 0-.1.3 2.3 2.3 0 0 1-.1.7 2.5 2.5 0 0 0 0 .9l-.3-.6a1.1 1.1 0 0 0 0-.6c-.1-.2-.2-.4-.3-.4s-.2.2-.2.5a.4.4 0 0 0 .1.3H.9a.5.5 0 0 1 .1.4v.2H.7v.2l.3.4c.1.1.1.6-.1.6s-.4.4-.4.9 0 .4.1.3.2 0 .3.3 0 1.1.2 1.5a.4.4 0 0 1 0 .2A13.3 13.3 0 0 1 .9 36a.8.8 0 0 0 0 .4H1c0 .2-.1.3-.1.4l.2.2v.5l.2.4v.3a.8.8 0 0 1 0 .3 1 1 0 0 1-.2.6c-.1.1-.2.1-.3.3s-.1 0-.1-.2a1.7 1.7 0 0 1 .1-.8c.1-.2 0-.5-.1-.6s-.2 0-.3.2a6.9 6.9 0 0 0-.4 2c0 .1 0 .2.1.1h.5v.2a3.7 3.7 0 0 0-.4 1.1v.3c0 .5.1.8.3.9s.1.3.1.4l-.1 1a4.2 4.2 0 0 1 0 1.4v.2c-.2.4-.2.4 0 .7a.7.7 0 0 1 .1.4 1 1 0 0 0 .1.5l.2-.3.3-.9c.1-.2.1-.2.2 0s.1.5.1.7a1.6 1.6 0 0 1 0 .3.9.9 0 0 1 0 .3 1.2 1.2 0 0 0-.2.7h-.2c-.1-.3-.2-.7-.4-.9.1.5 0 .6-.1.7H.4a.6.6 0 0 0-.2.5c0 .1 0 .2.1.3h.2c.1 0 .2.2.2.4s0 .4-.1.4-.3-.1-.5.3a.7.7 0 0 0 0 .4v.2a2 2 0 0 1 .2 1.4c0 .2 0 .5-.1.8a1 1 0 0 1 .2.8v.9h.1c.4.2.5.4.6 1.3v.2l-.2-.3v.7c-.1.3-.1.3-.3.5H.3v.2l.3.3h.3c0 .3.1.2.2.3-.1.4-.1.4-.3.4H.7a.2.2 0 0 0 0 .2 2.5 2.5 0 0 1 .1 1H1a.3.3 0 0 0 .3-.1v.6c-.2.1-.3-.1-.4 0s-.1 0-.1-.4a3 3 0 0 0-.1 1 .5.5 0 0 1-.2.4.3.3 0 0 0-.1.3l.4.6-.3.3-.4.3c.1.4.2.7.3.8s.2.2.2.4h.3a.2.2 0 0 1 0 .1H.7V63a.9.9 0 0 0 0 .6 2.6 2.6 0 0 1 .3 1s.1-.1.1-.2a1.8 1.8 0 0 1 .1-1 .6.6 0 0 1 .3.4v.2c0 .1.1 0 .1-.1v-.6l.2.2c.2.2.3 0 .4-.2l.2.6a.7.7 0 0 1 .1.5 2.9 2.9 0 0 0 .1 1.3 8.4 8.4 0 0 0-.3 2h-.2v-.8H2c-.2 0-.3-.2-.4-.5v-1.3c0-.1-.1-.3-.1-.3l-.2.2a2.6 2.6 0 0 0 0 .3v.6a.3.3 0 0 1 0-.1H.9a3.4 3.4 0 0 0 .4 1.3.4.4 0 0 1 0 .4c-.1.1-.2.3-.4.1a.4.4 0 0 0-.6-.1v.7c0 .2 0 .1.1.2l.2.2a1 1 0 0 0 .3.6.9.9 0 0 1 .1.7l-.2.5L.4 72a.5.5 0 0 0 .1.4h.1c.2 0 .2 0 .2.4s.1.6.1.9l-.3.3a1.1 1.1 0 0 0-.3.8v.5c0 .2 0 .4.2.3s.2 0 .3.2l.2.5v.6h.2a2.6 2.6 0 0 0 0-.8c0-.2.1-.3.1-.3h.1c.1 0 .1.2 0 .4v.4c0 .2.1.4.1.3l.4-.3a5.2 5.2 0 0 1 0-1.6v-1a.6.6 0 0 1 0-.3h.2c.1 0 .1.1.1.3v.9a4.3 4.3 0 0 1 0 1.1.3.3 0 0 0 .1.3h.1v1.5a.9.9 0 0 1-.2.6.5.5 0 0 0-.1.4v.4a.7.7 0 0 1-.1.6l-.3-.4-.3.6v.2a2.7 2.7 0 0 0 0 1.1c.1.4.2.6.4.4l.2-.3h.1a1.6 1.6 0 0 0-.1.4 7.9 7.9 0 0 1 0 1.8c0 .2-.1.5-.3.5h-.1v.2a1.6 1.6 0 0 1 .2 1.1c0 .1-.1.2-.1.3l.3.9h.2a.4.4 0 0 1 .1.3v.2a.8.8 0 0 0-.2.6 13.1 13.1 0 0 1-.1 1.8l-.2.3a4.8 4.8 0 0 0-.4 2.8v.2c0 .1-.1 0-.2-.2V92c0 .2 0 .5-.1.7l-.2.9.2 1a6 6 0 0 0 .1 1.1 1.1 1.1 0 0 1 0 .4c-.1.3-.1.5-.2.8a5.9 5.9 0 0 0 0 .8h.2v.3a3.4 3.4 0 0 0 .2 1.1 5.2 5.2 0 0 0 .1-1 1.3 1.3 0 0 1 .1-.4 3.3 3.3 0 0 0 .4-1h.1a6.8 6.8 0 0 0 .2 1.6 10 10 0 0 1 0 1.8h.1l1.1.3H4l.6-.2h-.2c.2-.1.2 0 .2 0h.3c.4.2.4.2.7 0l.4-.2.8.3h1c-.3.2.1.3.5.3 0-.2 0-.3.3-.5a1 1 0 0 0 .8.1h1c.6.2 1.5.1 1.9.4h1l.4-.2a2 2 0 0 1 1.4.1l.4.2h.7c.6-.1.7-.1 1 .1h3.1v-.1s0-.2.2-.2h.4l.4.2h.2a1.5 1.5 0 0 0 .9.2H25c.2.2.3.1.6 0h.5a.4.4 0 0 0 .5 0 1.3 1.3 0 0 1 1-.1h.3l.3-.2h.4c.3 0 .5.1.5.2s.1.2.4.2.6.1.8.1h1.3a6.1 6.1 0 0 1 2.5 0h.7l.2-.3a.6.6 0 0 1 .5-.2l.6-.2.4-.2a1.8 1.8 0 0 1 1.1-.2h.6a1 1 0 0 0 .8-.1 2 2 0 0 1 1.2 0c.2 0 .2.2.1.2h-.5a.8.8 0 0 0 0 .2c0 .1.2.2.4.1l1.1-.2h.6a1.9 1.9 0 0 1 1.2.2h1.1c.3.1.4.3.8.3l.9-.3h4.3c.1-.1.3-.1.5 0h.7l.2-.2h.5c1.2-.1 2.4-.1 3.6-.1h.1c.1 0 0 .1-.1.1s-.6.2-.3.4.1.2.1.3h.9l.3-.3a1.6 1.6 0 0 0 .1-.4l.4-.2h.3l-.5-.2h1.1l.3.5c.1.1 0 .2 0 .3h.1c-.1 0-.1-.1-.1-.1h-1a3.8 3.8 0 0 0 1.5 0c.2-.2.7-.3.5-.6h.2l.5-.2a.9.9 0 0 1 0-.2c0-.1.1-.2.3-.2h.7v.6h.5c-.4 0-.5.1-.5.3h1.7c.3 0 .6 0 .8.2h.1a3.4 3.4 0 0 0 2-.1h1c.2 0 .3-.1.2-.2l-.2-.3h.7c.3 0 .4.1.7.1v-.2c0-.1 0-.1.1-.1h.1a.1.1 0 0 1 0 .1l-.2.2a2.2 2.2 0 0 1 1 .1v.5h-.9c.1.2.7.2.7.4h.5l1.1.2h.3l.2-.4c-.1-.2.1-.3.4-.3l-.3-.2.2-.2h.6a.7.7 0 0 0 0-.2c0-.1 0-.1.1-.1h.3a1.5 1.5 0 0 1 .8.4l.4.2 1 .2h1.3a3.5 3.5 0 0 0 1.4.3c.3 0 .6-.1.5-.2l-.2-.6c0-.1.1-.2.4-.2s.4 0 .4.2 0 .3.4.4l.5.2a.5.5 0 0 0 .4.2h1.9l.5-.3c.2-.2.6-.1.9-.1h.7v.1c0 .1.2.2.6.1h.5c-.1-.1.1-.2.3-.3h.5c.2.1.3.2.2.3v.2h.3l.6-.2a10.5 10.5 0 0 1 2 0l1.4-.5h.9c.3 0 .4.1.2.3H91a1.7 1.7 0 0 0 .9.2c.3 0 .4.1.5.2a.6.6 0 0 0 .6 0h.1c.1-.2.5-.4 1-.3h.9c0 .2.1.2.4.3a5.6 5.6 0 0 1 1.5.2H98a.8.8 0 0 1-.7-.3h.6l.9.3c-.1 0-.1 0 0 0s0 .1 0 .1h.4l.8-.3h.5c.3 0 .4-.1.4-.2s0-.2-.2-.2h-.6c-.1 0-.1-.1 0-.2h-.7l-.6.2h-.2v-.1h.8a2.4 2.4 0 0 0-1.9-.1l-.6-.2a1.4 1.4 0 0 0-.8-.1c-.4 0-.5.1-.5.3s-.1.2-.2.2h-.5c.1-.1.1-.2-.3-.3h6.4v-1.4a.5.5 0 0 0 .1-.4h-.1V79.8a4.9 4.9 0 0 0 0-1.4V64.8h.1c0-.6.1-1.2 0-1.8a1.3 1.3 0 0 0-.2-.6v-3.7l.2-.9a3.1 3.1 0 0 0 .1-1.1 6.2 6.2 0 0 1 0-1.7 5.9 5.9 0 0 0 0-.6 1.9 1.9 0 0 0-.1-.7l-.2-.4v-2.7l.2-.6a1.8 1.8 0 0 0 .1-.7 5.9 5.9 0 0 0-.1-1.5 5.4 5.4 0 0 1-.1-1v-3.6a4.6 4.6 0 0 0 .1-1.2v-2.1l.3-1.3v-.3a1.4 1.4 0 0 1-.1-1.2l.2-.7a9.7 9.7 0 0 0 .2-1.5v-1.6a5.9 5.9 0 0 0 0-.8 4.4 4.4 0 0 1 .1-1.4 1 1 0 0 0 0-.3v-.2h-.1c-.1.1-.1.4-.3.4a13.8 13.8 0 0 1 .1-2 2.7 2.7 0 0 0 0-.5h-.5v-2.1a.6.6 0 0 0 0-.3v-3.5a3.1 3.1 0 0 0 .5-1.3 1.8 1.8 0 0 0-.3-.6l-.2-.3V20h.1c.1.1.2.2.3.1a.8.8 0 0 0 .2-.7 4.4 4.4 0 0 1 .2-1.9 1.6 1.6 0 0 0 0-.4h-.1a.4.4 0 0 1-.1-.4c0-.2.1-.1.2-.1h.1c0-.4 0-.8-.1-1.2s-.1-.5-.1-.7a4.2 4.2 0 0 1 0-.6v-1.3l-.3-1a2.2 2.2 0 0 1 0-1.2l.3-1.4c.1-.5.1-1.1.2-1.7a.5.5 0 0 0 0-.2 1.7 1.7 0 0 0 0-.3l-.3-1v.9c0-.3.1-.5.1-.8v-.3a2.3 2.3 0 0 1 .2-1.1 4.4 4.4 0 0 0 .2-1.4zM88 1.6zM1.6 20.7c0-.1.1-.1.1 0zm.1 1.2a.2.2 0 0 1 0-.2h.1v.2zM1.3 40v.4h.1a.4.4 0 0 1 0 .1c-.1 0-.1-.1-.1-.2V40zm0 5.1a1.3 1.3 0 0 1 0-.3v-.2.5zm.1-2c-.1.5-.2.6-.4.2a1 1 0 0 1 0-.3l.5-.3a1.3 1.3 0 0 1-.1.4zM.7 75zm.3-3.5a.6.6 0 0 1 0-.2c0-.2.1-.2.2-.2v.2c0 .2-.1.4-.2.2zm.7-.8c0 .1-.1.2-.2.1l-.2-.4a.7.7 0 0 1 0-.3V70h.4zm.6 2.3h-.1v-.2c.2.1.2.2.2.3zm0-1.2c0-.1 0-.2.1-.1.1.2 0 .3 0 .2zm-1 25.4zm.9-2h-.1v-.3a1.2 1.2 0 0 1 0-.3l.2.2a.6.6 0 0 1-.1.4zm94.7 6.1h.4l-.4-.2v.2zm-.2.5v.1h-.4v-.1zM94.6 1.6s-.1 0 0 0zm-12.8-.4zm-.8.2h-.5c-.1.2.2.1.5.1zM61.1.5zm-6.4.6zm-3.5.6h1.7a.1.1 0 0 1 .1.2h-1.9v-.2zm-10.4 0zm-17.3-.2h.2a1.7 1.7 0 0 1 1 .3h-1.2a.3.3 0 0 1 0-.3zm-1.2.2zM20 1.1h.3c.1 0 .2.1.1.2H20l.1-.1zm-1 .2zM17.9.8h.1c-.1.1-.2 0-.1 0zm.1.4l-1 .2h-.1a1.7 1.7 0 0 1 1.1-.3zM14.6.9l1.2.3s.1.1 0 .1h-.5zm6 .9zM3.4 1.7zM3 .6zm-.6 11zm-1 38.5a.6.6 0 0 1 0 .1h-.1c.1-.3.1-.3.1-.1zm-.4-.8zm-.1.8a.3.3 0 0 1 0 .1c.1-.2.1-.3.1-.1zm.5 7.4c-.1.3-.2.2-.3-.2a.6.6 0 0 0-.1-.4c.2-.2.2-.2.3.3l.2-.5h.1a.6.6 0 0 1 0 .3 1.3 1.3 0 0 1-.1.5zm.3-3.3c-.2 0-.2.3-.3.6h-.1a4.9 4.9 0 0 0-.2-1.9l-.2-.3H.7c-.1.1-.1 0-.1-.3v-.4c.2-.1.4-.1.5-.3s.3 0 .5.1.1.1.1.5v.2c-.1-.2-.2-.3-.2-.2a.7.7 0 0 0 0 .4l.3 1.2c0 .1.1.1.2 0-.1.1-.1.4-.2.4zm-.1-4.1V49l.4-.5v1c0 .3-.1.6-.3.6zm.2-3zm.2-8.9zm.1 7.9zm-.3-9.3c-.1.2-.2-.1-.2-.3a1.3 1.3 0 0 1 0-.6.6.6 0 0 0 0-.4V35a2.5 2.5 0 0 1 0-1.2h.1v.2c0 .2.1.3.2.3H2a2.4 2.4 0 0 0 0 1.3l.3.9c-.2-.1-.3.1-.5.3zm.4-17.3l-.2.2c-.1 0-.2-.3-.2-.5s.1-.2.2-.2l.2.2a.6.6 0 0 1 .1.4zm.1-11.2a.8.8 0 0 1-.1-.5v-.2a1.1 1.1 0 0 1 .1.7zm.1 5.7zm0 43.7a.2.2 0 0 1 0-.2v.3zm-.1 27.4v-.2a.5.5 0 0 1 0-.1h.2v.5h-.2zm.1 5v-.2a.5.5 0 0 1 .1-.4v.6zM13 100.8zm6.6-.4zm3.8.7h-.6c-.1 0-.2-.1-.1-.2h.7zm1.2-.2zm9 .3zm6.6-.8h-.3v-.1h.3zm2.3.5h-1v-.2h.8c.1.1.2.2.1.2zm3.2-.2c-.2.3-.7.3-1.2.3h1.2zm3.7.4h-2.9c-.1-.1 0-.2.3-.3h2.5zm1.5-.2l-.3.3h-.4l.2-.6h.5c-.1.1 0 .2-.1.3zm1.3 0zm1.7-.3zm1.5.3H55s-.1-.1 0-.1h.3zm3.1-.4h-.3c0-.1 0-.1.1-.1h.2zm4.5.8zm6-.9h-.3c-.1-.1 0-.1.2-.2h.1zm1.4 1zm4.3-.6c-.1-.2 0-.3.3-.4l-.8.2v.3h-.3c-.2-.3.1-.4.7-.4h.5v.5zm1.8-.2h-.2v-.1h.2zm6 .4zm1.2-.4c-.1 0-.1-.1-.1-.1h.1zm3.8.1c-.1 0-.2 0-.1-.1h.1zm1.3.2zm5.5.2zm-32.7-.8a.8.8 0 0 1 .6 0h-.6c-.3-.1-.4-.1-.3-.2h.4v.2zM101 4.7v-.6h.1c.1 0 .2.2.2.4v.3zm.3 12.8a1.2 1.2 0 0 1 0 .7h-.1c-.2-.1-.2-.4-.2-.8v-.2zM1.7 85.7zM.9 66.6zm1.4 10.5zM2 34.3z"></path><path d="M.3 66.8a.4.4 0 0 1 .5-.2h.1l.2-.8-.5-.9H.4L0 65a.5.5 0 0 0 0 .3c0 .2.1.4.2.4h.3c-.1.3-.1.8-.3.8v.2c-.1.1 0 .2.1.1zm.6-.2zm37.2 35.3zM8.7 1c.3 0 .4-.1.4-.3s0-.2-.3-.2a1 1 0 0 1-.8.1h-.4c-.2.1-.2.3.1.4s.1.1 0 .2a.7.7 0 0 1 .5-.2zM3.5 101.5c.5.1.5.1 1.6 0l-.7-.2zm-2-96.9h.1a4.7 4.7 0 0 1 0-.6 1.3 1.3 0 0 0-.2-.9 6.9 6.9 0 0 1 .1 1.5zm52.8 97.6c-.1 0-.1.2.1.2h-.1zm24.7-.1h-.2l-.2.3h.2l.4-.2zm-77.5-12zm.2-1c0-.2-.1-.2-.2-.2s-.1.1-.1.2v.7a1.5 1.5 0 0 0 .3-.7zm.1-1.4zm-.3-.6c.1.2.1.7.3.6l-.2-.6h-.1zm86.7 14.7h-.4c-.1 0-.2.1-.1.2h.7c.1 0 0-.1-.2-.2zm-34.5-.3c-.2 0-.3.1-.2.1l.4.2h.1c.1 0 .2-.2.2-.2h-.5zM35.8.7c.1-.1.2-.1 0-.2zM8.4 0h-.1c-.1.2.2.3.6.4L8.6 0zM49 .8c.1-.1.1-.2 0-.3h-.5c0 .2.3.2.5.3zm-7.3 101zm-40-19.3v-.2c-.1 0-.1.2-.1.3s.1 0 .1-.1zM47.6.7c.1.1.1 0 0 0zM38 .7zM10.3.7zm29.6 100.6zm-1.1.1zm0 0a1.1 1.1 0 0 0 .8 0h-.8zm63.9-40.8c-.1-.1-.1-.1-.1 0a.4.4 0 0 0 .1.3h.1zm-42.9 41.5h.2c.2 0 .3 0 .3-.2h-.2zM.4 59.6v-.2H.3a.5.5 0 0 0 0 .2c0 .3.1.2.1 0zM101.8 5.8c0 .1.1.1.1-.1h-.1a.6.6 0 0 0 0 .1zM68.8.7h-.2c-.1 0-.2.1 0 .2zM1.2 80.3zM.9 92.2H1V92H.9c0 .1-.1.2 0 .2zm37.8 9.7zm-.6 0zm63.1-56.6c0 .1.1.1.1-.1h-.1a.3.3 0 0 0 0 .1zM10.7 1.4zm-8.8 66H2c0 .1 0 0-.1 0zm99.7-40.8v-.1.1zM1.9 88.1a.3.3 0 0 0 0-.1c-.1.1-.1.1 0 .1zM85.2 1zm-50 0zM1.7 85.9c0-.1 0 0 0 0zM30.3.8zm-9.1 100.3c-.1 0-.1.1.1.1h-.1zm.1 0zM1.4 99.5v-.2a.2.2 0 0 0 0 .2zm.1-.2zM7.5.6h.1-.1zm.2 0zM1.3 6.3zM50.1.4zm21.3 101.2v.3c.3-.2.3-.2 0-.3zm0 .2zm0-.2zM.7 23.9zM68.1 102zM.7 19.3zm62 82.7c-.1.1 0 .1.1.1h-.1zM.4 35.8h.1c0-.1-.1-.2-.1 0zm.1.1zm99-34.3zm.3-.1zM2.3 76.9v.1zm99.3-55.7zM30.9.8v.1-.1zm-2.8 0l-.1.1.1-.1zM8.3 101.2h.1s.1 0 0-.1h-.1zm7.8 0zM70.9.7h-.1.1zM22.7.7h-.1.1zM1.4 90.4v-.3.3zm.1-.3zm-.1.3zm0-87.3zm0 0zm37.4 98.3zm-.2.1zm-.3 0v-.2H38c-.2.2-.6.1-1 .1h-.2c.1.2 0 .4.2.5h1v-.2l.2-.2zM52.9.5zm.2-.1H53c.1.1.2.1.1 0zM38.6.5h.1-.1zm3.1 101.2zm0 0l-.2-.2v.2zm-.2-.2zm-.2.2zm-.1.1h.2c-.2-.1-.3-.1-.2 0zm27.3.1zM.7 24.6zm0 .3a.4.4 0 0 0 0-.3v.3zm0 10.2V35v.1zm.1 20.1zM35 102zm27.1-.1c.1 0 .1 0 0 0zM.6 36H.5s0 .2.1 0z"></path></g></g><g id="SvgjsG5844" featurekey="symbolFeature-0" transform="matrix(1.8229166666666665,0,0,1.8229166666666665,5.177083333333334,4.609372739990553)" fill="#ffffff"><g xmlns="http://www.w3.org/2000/svg"><path d="M43.9,16.7c-0.5-4.2-4-7.4-8.3-7.4c-1.3,0-2.5,0.3-3.5,0.8c-1.6-2.7-4.4-4.4-7.8-4.4c-3.1,0-5.8,1.6-7.4,3.9   c3.3,0.2,6.4,2,8.3,4.7c1.2-0.4,2.4-0.6,3.6-0.6c5.1,0,9.4,3.7,10.3,8.7c3.5,1.7,5.8,5.3,5.8,9.3c2.5-1.4,4.1-4.1,4.1-7.2   C49,21,46.9,18,43.9,16.7z"></path><path d="M26,23.7c-1,0-1.9,0.4-2.6,1.1c-0.7,0.7-1.1,1.6-1.1,2.7c0,1,0.4,1.9,1.1,2.7c0.7,0.7,1.6,1.1,2.6,1.1c1,0,1.9-0.4,2.6-1.1   c0.7-0.7,1.1-1.6,1.1-2.7c0-1-0.4-1.9-1.1-2.7C27.9,24,27.1,23.7,26,23.7z"></path><path d="M38.2,23c-0.5-4.7-4.5-8.4-9.3-8.4c-1.4,0-2.8,0.3-4,0.9c-1.8-3-5-5-8.7-5C10.6,10.5,6,15.1,6,20.6c0,0.3,0,0.6,0,0.9   C3,23.5,1,26.9,1,30.8c0,6,4.9,10.9,10.9,10.9c1.3,0,2.6-0.2,3.8-0.7c1.7,2,4.3,3.3,7.2,3.3c3.2,0,6.1-1.6,7.8-4.1   c1.2,0.5,2.5,0.8,3.8,0.8c5.2,0,9.4-4.2,9.4-9.4C43.9,27.8,41.5,24.4,38.2,23z M12.7,30c0.7,0.7,1.5,1.1,2.5,1.1   c0.6,0,1.1-0.1,1.6-0.3c0.4-0.2,0.9-0.5,1.4-1l1.1,1.2c-1.1,1.2-2.4,1.8-4,1.8c-1.6,0-2.9-0.5-3.9-1.5c-1-1-1.6-2.3-1.6-3.8   c0-1.5,0.5-2.8,1.6-3.9c1.1-1,2.4-1.5,4-1.5c1.6,0,3,0.6,4,1.8l-1.1,1.2c-0.5-0.5-1-0.8-1.4-1c-0.4-0.2-1-0.3-1.6-0.3   c-1,0-1.9,0.3-2.6,1c-0.7,0.7-1.1,1.5-1.1,2.6C11.7,28.5,12,29.3,12.7,30z M29.9,31.3c-1,1-2.3,1.5-3.9,1.5c-1.5,0-2.8-0.5-3.9-1.5   c-1.1-1-1.6-2.3-1.6-3.8c0-1.5,0.5-2.8,1.6-3.8c1-1,2.3-1.5,3.9-1.5c1.5,0,2.8,0.5,3.9,1.5c1.1,1,1.6,2.3,1.6,3.8   C31.5,29,31,30.2,29.9,31.3z M35.4,37.6h-4.3v-0.9l1.9-1.9c0.4-0.4,0.7-0.8,0.9-1c0.2-0.2,0.3-0.5,0.3-0.7s-0.1-0.5-0.3-0.6   c-0.2-0.2-0.4-0.3-0.7-0.3c-0.5,0-0.9,0.3-1.3,0.8l-0.8-0.5c0.3-0.4,0.6-0.7,0.9-0.9c0.3-0.2,0.8-0.3,1.3-0.3c0.5,0,1,0.2,1.4,0.5   c0.4,0.3,0.6,0.8,0.6,1.3c0,0.3-0.1,0.6-0.2,0.9c-0.2,0.3-0.5,0.7-0.9,1.1l-1.5,1.5h2.8V37.6z"></path></g></g><g id="SvgjsG5845" featurekey="nameFeature-0" transform="matrix(0.4382825957426346,0,0,0.4382825957426346,120.1270125507705,23.79248733165802)" fill="#0bcc8b"><path d="M7.52 29.68 c-0.12 -4.56 -0.08 -9.4 -0.04 -13.92 c0 -1.4 -0.08 -2.92 -0.08 -4.32 c0 -1.52 -0.6 -1.44 -1.4 -1.48 c-1.16 -0.04 -1.68 -0.04 -2.84 -0.04 c-0.76 -0.04 -1.08 0.16 -1.08 0.92 c0 3.92 -0.12 15 -0.08 16.6 s0.2 8.88 0.12 10.48 c-0.04 0.56 0 1.12 0.04 1.68 c0.04 0.2 0.16 0.4 0.48 0.4 c1.32 -0.08 2.56 -0.08 3.88 -0.12 c0.48 -0.04 0.88 -0.16 1.08 -0.68 c0.04 -0.28 -0.08 -7.6 -0.08 -9.52 z M29.381999999999998 10.920000000000002 c0.12 0.56 0.04 27.2 0.04 27.88 c0 1.2 -0.44 1.16 -1.24 1.16 c-1.2 0 -2.88 0.2 -3.24 -0.2 c-0.32 -0.28 -6.24 -14.56 -7.08 -16.36 c-0.08 -0.16 -0.28 -0.56 -0.44 -0.48 c-0.2 0.08 -0.12 0.36 -0.12 0.52 c-0.04 1.4 0.2 13.48 0.2 15.4 c0 0.96 -0.04 1.12 -0.84 1.12 l-2 0 c-0.52 0 -1.16 -0.04 -1.68 0.04 c-0.4 0 -0.6 -0.12 -0.64 -0.52 l0 -3.16 c0.08 -3.36 0 -23.28 0 -24.76 c0 -1.28 0.36 -1.52 1.64 -1.52 c0.88 -0.04 1.76 -0.04 2.64 -0.04 c0.28 0 0.44 0.04 0.6 0.4 c1.08 2.52 5.68 14.08 6.4 15.48 c0.12 0.28 0.56 1.4 0.8 1.52 l0.04 0 c0.16 -0.16 0.12 -0.96 0.12 -1.2 c0 -0.6 -0.32 -14.64 -0.32 -14.92 c0 -0.4 -0.12 -0.76 0.08 -1.04 c0.12 -0.16 0.64 -0.2 0.84 -0.24 c1.12 -0.08 2.44 0.04 3.56 0 c0.56 0 0.52 0.4 0.64 0.92 z M51.906 14.52 c0.28 -0.08 6.32 0.2 7.28 0.08 c0.36 0 0.72 -0.2 0.72 -1.08 l0 -3.08 c-0.04 -0.32 -0.28 -0.48 -0.6 -0.48 c-0.68 0 -1.36 0 -2.04 0.04 c-1.36 0.08 -6.84 0 -8.6 0.08 c-0.64 0.04 -0.8 0.84 -0.84 1.48 c-0.08 0.48 -0.64 11.2 -0.64 12.12 c0 0.88 0.52 0.76 1 0.36 c0.2 -0.2 0.8 -0.96 2.44 -0.96 c2.76 0 5.2 2.28 5.2 5.8 c0 5.6 -2.84 6.56 -4.48 6.56 c-1.16 0 -1.68 -0.24 -2.56 -0.8 c-0.32 -0.2 -0.6 -0.44 -0.88 -0.64 c-0.32 -0.2 -0.6 -0.2 -0.88 0.08 c-0.68 1.04 -1.32 2.04 -2 3.2 c-0.16 0.44 -0.04 0.72 0.4 1 c1.28 0.72 2.8 1.72 7.28 1.72 c6.16 0 8.16 -6.96 8.16 -11.2 c0 -4.56 -3.72 -9.48 -7.12 -9.48 c-1.28 0 -1.96 0.2 -2.16 0.2 c-0.32 0 -0.28 -0.56 -0.24 -1.36 c0 -0.56 0.08 -1.6 0.08 -2.16 c0.08 -1 0.04 -1.48 0.48 -1.48 z M82.28800000000001 23.8 c0 -2.88 -0.72 -14.2 -8.6 -14.2 c-7.12 0 -8.08 10.56 -8.08 14.16 c0 9.56 2 16.6 8.08 16.6 c8 0 8.6 -12.32 8.6 -16.56 z M76.968 23.76 c0 2.6 0.32 12.16 -3.28 12.16 c-3.04 0 -3 -9.12 -3 -12.16 c0 -1.68 -0.04 -9.48 3 -9.48 c3.32 0 3.28 7.2 3.28 9.48 z M103.212 32.76 c0 -1.4 -0.2 -5.2 -0.16 -6 c0 -0.12 0.08 -0.28 0.12 -0.28 c0.08 0 0.24 0.08 0.28 0.12 c1.28 1.68 7.28 13.32 8 13.36 c0.2 0.04 0.4 0.04 0.6 0.04 c1.36 -0.08 2.56 0 3.92 0 c1.4 0 0.48 -1.36 0.24 -1.72 c-0.36 -0.52 -5.12 -9.04 -5.4 -9.56 c-0.8 -1.36 -1.48 -2.84 -2.28 -4.16 c-0.08 -0.16 -0.16 -0.4 -0.12 -0.56 c0.08 -0.48 0.2 -0.92 0.4 -1.36 c0.96 -1.88 1.96 -3.8 3.12 -5.6 c1.28 -2.04 2 -3.32 3.04 -5.16 c0.24 -0.44 0.4 -0.92 0.56 -1.44 c0.04 -0.2 -0.12 -0.4 -0.36 -0.4 c-0.76 -0.04 -3.52 0 -4.4 0 c-0.4 0 -0.8 0.08 -1 0.44 c-0.52 1 -5.88 10.8 -6.4 11.68 c-0.04 0.08 -0.16 0.12 -0.28 0.12 c0 0 -0.08 -0.12 -0.08 -0.2 c-0.04 -2.24 0.36 -9.56 0.28 -11.04 c-0.04 -0.88 -0.2 -0.96 -1.08 -1 c-0.96 -0.04 -2.28 -0.04 -3.24 -0.04 c-0.88 0 -0.96 0.48 -1.08 1.12 c-0.04 0.12 -0.04 3.88 -0.04 5.56 c0 2.44 -0.2 17.72 0.08 22.56 c0 0.48 0.12 0.76 0.52 0.76 c1.08 -0.08 2.68 0 3.76 0 c0.76 0 0.88 -0.08 0.88 -1.36 c0 -1.72 0.16 -3.28 0.16 -5.4 c0 -0.16 -0.04 -0.32 -0.04 -0.48 z M121.474 13.920000000000002 c-0.04 2.48 0.2 20.6 0.16 21.92 c0 1.24 0 2.48 0.04 3.72 c0 0.2 0.12 0.4 0.32 0.4 c2.8 0.12 5.56 -0.12 8.36 -0.08 c0.92 0.04 1.84 0 2.72 0 c0.88 -0.04 0.96 -0.4 0.92 -1.12 c-0.04 -1.12 -0.04 -2.12 -0.04 -3.2 c-0.04 -0.56 -0.36 -0.76 -0.84 -0.76 c-1.64 0.04 -3.28 -0.04 -4.92 0.04 c-0.28 0.04 -0.56 0.04 -0.84 0.04 c-0.48 -0.04 -0.6 -0.16 -0.64 -0.68 l0 -0.6 c-0.12 -3.32 0.12 -6.76 0.12 -10.08 c-0.04 -2.8 0 -5.32 -0.04 -7.8 c0 -1.08 0 -2.16 -0.04 -3.2 c-0.04 -0.64 0 -1.32 -0.16 -1.96 c-0.08 -0.24 -0.2 -0.56 -0.48 -0.56 l-3.76 0 c-0.64 0 -0.84 0.44 -0.88 1.08 l0 2.84 z M138.77599999999998 31.8 l-0.04 0 c0 1 -0.04 2.04 0 3.08 c0.04 1.28 0.12 2.56 0.2 3.84 c0 0.44 0.12 0.56 0.52 0.64 c0.84 0.2 1.64 0.24 2.48 0.24 c2.16 -0.08 4.32 0.08 6.48 0 c0.88 -0.04 1.28 0.04 2.16 -0.12 c0.8 -0.16 1.08 -0.6 1.08 -1.8 c-0.08 -0.76 -0.04 -1.08 -0.04 -2 c0 -1.32 -0.92 -1.76 -1.72 -1.72 c-0.56 0.04 -3.24 -0.04 -4.32 -0.04 c-1.8 0.04 -1.52 0.28 -1.52 -1.6 c0 -1.52 0.04 -3.48 0.04 -5.04 c0 -0.84 0.08 -1.12 0.88 -1.12 l5 0 c0.8 0.12 1.36 -0.44 1.36 -1.28 s0.08 -0.88 0.08 -1.72 l-0.12 -1.2 c-0.08 -0.68 -0.32 -0.92 -1 -0.92 c-0.44 0 -0.88 0.04 -1.32 0.08 c-1.72 0.12 -2.52 -0.12 -4.2 0 c-0.56 0 -0.64 -0.08 -0.68 -0.6 c-0.16 -1.56 0 -3.28 0.16 -4.84 c0.04 -0.64 0.2 -0.76 0.8 -0.8 l5.64 -0.04 c0.76 -0.08 1 -0.04 0.96 -0.8 c-0.08 -1.16 0.04 -2.36 -0.08 -3.52 c-0.08 -0.64 -0.28 -0.76 -1 -0.76 c-1.2 0.04 -1.48 0.04 -2.68 0.12 c-1.2 0.04 -6 0.04 -7.16 0.04 c-1.68 0 -1.8 -0.12 -1.84 1.92 c-0.08 1.6 -0.04 3.24 -0.04 4.88 c0 2.8 -0.16 12.84 -0.08 15.08 z M161.918 29.68 c-0.12 -4.56 -0.08 -9.4 -0.04 -13.92 c0 -1.4 -0.08 -2.92 -0.08 -4.32 c0 -1.52 -0.6 -1.44 -1.4 -1.48 c-1.16 -0.04 -1.68 -0.04 -2.84 -0.04 c-0.76 -0.04 -1.08 0.16 -1.08 0.92 c0 3.92 -0.12 15 -0.08 16.6 s0.2 8.88 0.12 10.48 c-0.04 0.56 0 1.12 0.04 1.68 c0.04 0.2 0.16 0.4 0.48 0.4 c1.32 -0.08 2.56 -0.08 3.88 -0.12 c0.48 -0.04 0.88 -0.16 1.08 -0.68 c0.04 -0.28 -0.08 -7.6 -0.08 -9.52 z M183.78 10.920000000000002 c0.12 0.56 0.04 27.2 0.04 27.88 c0 1.2 -0.44 1.16 -1.24 1.16 c-1.2 0 -2.88 0.2 -3.24 -0.2 c-0.32 -0.28 -6.24 -14.56 -7.08 -16.36 c-0.08 -0.16 -0.28 -0.56 -0.44 -0.48 c-0.2 0.08 -0.12 0.36 -0.12 0.52 c-0.04 1.4 0.2 13.48 0.2 15.4 c0 0.96 -0.04 1.12 -0.84 1.12 l-2 0 c-0.52 0 -1.16 -0.04 -1.68 0.04 c-0.4 0 -0.6 -0.12 -0.64 -0.52 l0 -3.16 c0.08 -3.36 0 -23.28 0 -24.76 c0 -1.28 0.36 -1.52 1.64 -1.52 c0.88 -0.04 1.76 -0.04 2.64 -0.04 c0.28 0 0.44 0.04 0.6 0.4 c1.08 2.52 5.68 14.08 6.4 15.48 c0.12 0.28 0.56 1.4 0.8 1.52 l0.04 0 c0.16 -0.16 0.12 -0.96 0.12 -1.2 c0 -0.6 -0.32 -14.64 -0.32 -14.92 c0 -0.4 -0.12 -0.76 0.08 -1.04 c0.12 -0.16 0.64 -0.2 0.84 -0.24 c1.12 -0.08 2.44 0.04 3.56 0 c0.56 0 0.52 0.4 0.64 0.92 z M188.642 31.8 l-0.04 0 c0 1 -0.04 2.04 0 3.08 c0.04 1.28 0.12 2.56 0.2 3.84 c0 0.44 0.12 0.56 0.52 0.64 c0.84 0.2 1.64 0.24 2.48 0.24 c2.16 -0.08 4.32 0.08 6.48 0 c0.88 -0.04 1.28 0.04 2.16 -0.12 c0.8 -0.16 1.08 -0.6 1.08 -1.8 c-0.08 -0.76 -0.04 -1.08 -0.04 -2 c0 -1.32 -0.92 -1.76 -1.72 -1.72 c-0.56 0.04 -3.24 -0.04 -4.32 -0.04 c-1.8 0.04 -1.52 0.28 -1.52 -1.6 c0 -1.52 0.04 -3.48 0.04 -5.04 c0 -0.84 0.08 -1.12 0.88 -1.12 l5 0 c0.8 0.12 1.36 -0.44 1.36 -1.28 s0.08 -0.88 0.08 -1.72 l-0.12 -1.2 c-0.08 -0.68 -0.32 -0.92 -1 -0.92 c-0.44 0 -0.88 0.04 -1.32 0.08 c-1.72 0.12 -2.52 -0.12 -4.2 0 c-0.56 0 -0.64 -0.08 -0.68 -0.6 c-0.16 -1.56 0 -3.28 0.16 -4.84 c0.04 -0.64 0.2 -0.76 0.8 -0.8 l5.64 -0.04 c0.76 -0.08 1 -0.04 0.96 -0.8 c-0.08 -1.16 0.04 -2.36 -0.08 -3.52 c-0.08 -0.64 -0.28 -0.76 -1 -0.76 c-1.2 0.04 -1.48 0.04 -2.68 0.12 c-1.2 0.04 -6 0.04 -7.16 0.04 c-1.68 0 -1.8 -0.12 -1.84 1.92 c-0.08 1.6 -0.04 3.24 -0.04 4.88 c0 2.8 -0.16 12.84 -0.08 15.08 z M223.304 10.920000000000002 c0.12 0.56 0.04 27.2 0.04 27.88 c0 1.2 -0.44 1.16 -1.24 1.16 c-1.2 0 -2.88 0.2 -3.24 -0.2 c-0.32 -0.28 -6.24 -14.56 -7.08 -16.36 c-0.08 -0.16 -0.28 -0.56 -0.44 -0.48 c-0.2 0.08 -0.12 0.36 -0.12 0.52 c-0.04 1.4 0.2 13.48 0.2 15.4 c0 0.96 -0.04 1.12 -0.84 1.12 l-2 0 c-0.52 0 -1.16 -0.04 -1.68 0.04 c-0.4 0 -0.6 -0.12 -0.64 -0.52 l0 -3.16 c0.08 -3.36 0 -23.28 0 -24.76 c0 -1.28 0.36 -1.52 1.64 -1.52 c0.88 -0.04 1.76 -0.04 2.64 -0.04 c0.28 0 0.44 0.04 0.6 0.4 c1.08 2.52 5.68 14.08 6.4 15.48 c0.12 0.28 0.56 1.4 0.8 1.52 l0.04 0 c0.16 -0.16 0.12 -0.96 0.12 -1.2 c0 -0.6 -0.32 -14.64 -0.32 -14.92 c0 -0.4 -0.12 -0.76 0.08 -1.04 c0.12 -0.16 0.64 -0.2 0.84 -0.24 c1.12 -0.08 2.44 0.04 3.56 0 c0.56 0 0.52 0.4 0.64 0.92 z M247.028 9.8 c-0.76 0.04 -1.52 0.16 -2.28 0.4 c-1.64 0.56 -3.12 1.68 -4.12 3.12 c-0.88 1.32 -1.24 2.88 -1.36 4.44 c-0.08 1.2 0.04 2.44 0.6 3.52 c0.6 1.16 1.64 2.16 2.52 3.12 c0.8 0.84 1.6 1.68 2.48 2.44 c0.8 0.76 1.72 1.36 2.52 2.16 c1.16 1.16 1.6 3.8 0.76 5.24 c-1 1.6 -3.36 1.84 -4.92 1.32 c-0.8 -0.28 -1.52 -0.88 -2.2 -1.36 c-0.4 -0.28 -0.88 -0.4 -1.16 0.08 c-0.16 0.24 -0.24 0.52 -0.32 0.76 c-0.28 1 -0.64 1.92 -0.68 3 c-0.04 1.24 2.32 1.6 3.2 1.8 c3.92 0.92 8.64 0.2 10.68 -3.68 c0.4 -0.8 0.68 -1.64 0.84 -2.52 c0.04 -0.32 0.08 -0.6 0.08 -0.92 c0.16 -2.56 -0.88 -4.72 -2.44 -6.64 c-1.68 -2.08 -3.8 -3.52 -5.76 -5.32 c-1.2 -1.12 -1.64 -2.88 -1.28 -4.48 c0.36 -1.72 2.32 -2.16 3.8 -1.72 c0.44 0.12 0.8 0.32 1.2 0.56 c0.24 0.12 0.48 0.28 0.8 0.28 c0.56 0.04 0.64 -0.4 0.76 -0.84 c0.28 -1 0.76 -1.8 0.96 -2.76 c0.2 -1.08 -0.68 -1.28 -1.56 -1.56 c-1.04 -0.28 -2.04 -0.48 -3.12 -0.44 z M274.21 14.719999999999999 c0.04 -1.32 0 -2.4 0 -3.68 c0 -1.48 -2.68 -1.32 -3.64 -1.28 c-4.28 0.28 -8.36 3 -10.32 6.72 c-0.56 1.08 -0.96 2.2 -1.24 3.36 c-0.68 2.72 -0.72 5.6 -0.4 8.36 c0.28 2.6 0.96 5.2 2.56 7.28 c2.76 3.64 7.84 4.92 12.2 4.24 c0.2 -0.04 0.4 -0.08 0.56 -0.2 c0.12 -0.08 0.24 -0.24 0.24 -0.4 l0.12 -2.28 c0.04 -0.72 0 -0.68 0 -1.4 c0 -0.96 -2 -0.24 -3.24 -0.24 c-1.2 0 -2.48 -0.04 -3.56 -0.6 c-1.92 -1.08 -3 -3.24 -3.6 -5.28 c-0.68 -2.2 -0.84 -4.56 -0.44 -6.8 c0.48 -2.92 1.88 -6.28 4.96 -7.28 c1.76 -0.6 3.64 -0.4 5.4 -0.2 c0.24 0.04 0.4 -0.12 0.4 -0.32 z M291.032 28.16 c0 1.8 -0.04 5.36 -0.08 5.36 l0 5.44 c0 0.24 -0.04 0.64 0.08 0.88 c0.12 0.28 0.48 0.2 0.72 0.16 c1.16 -0.12 2.32 0.04 3.48 0 c1.28 -0.04 0.88 -2 0.84 -2.8 c-0.16 -1.76 0.04 -15.16 0.04 -19.96 c0 -2.16 -0.08 -6.6 -0.2 -6.8 c-0.2 -0.36 -0.72 -0.44 -1.12 -0.48 c-0.88 -0.16 -1.32 0.08 -2.64 0.08 s-1.4 0.4 -1.4 1.8 l0 1.2 c-0.04 0.96 0.12 7.68 0.12 8.76 c0 0.52 -0.04 0.56 -0.56 0.56 c-1.32 -0.04 -3.16 0.12 -4.52 0 c-1.96 -0.16 -1.52 0 -1.64 -1.8 l0 -0.24 c0 -2.56 0.32 -9.2 0.2 -9.6 c-0.2 -0.6 -0.44 -0.72 -0.96 -0.68 c-1.2 0.08 -2.44 -0.12 -3.64 -0.04 c-0.4 0.04 -0.52 0.16 -0.64 0.56 c-0.04 0.2 -0.08 0.4 -0.08 0.6 c0 1.24 0.08 2.92 0.12 4.16 l-0.12 23.72 c0 1.04 0.92 0.92 2.96 0.92 c1.88 0 2.36 0.44 2.36 -1.8 c0 -1.8 -0.12 -4.08 -0.08 -5.88 c0.04 -1.4 0 -2.76 0 -4.16 c0.04 -0.52 0.16 -0.68 0.64 -0.68 c1.76 -0.04 3.68 0 5.44 0 c0.56 0 0.68 0.08 0.68 0.72 z M305.854 37 c0 -1.04 0 -7.6 0.04 -8.12 c0.04 -0.12 0.12 -0.36 0.28 -0.36 s0.24 0.08 0.28 0.2 c1.6 3.12 3 6.24 4.44 9.28 c0.2 0.44 0.64 1.72 0.76 1.84 c0.16 0.24 0.44 0.16 0.68 0.16 l4.4 0.04 c0.52 0 0.64 -0.32 0.52 -0.76 c-0.32 -1.2 -2.6 -5.44 -3.12 -6.48 c-0.36 -0.8 -2.76 -5.44 -2.84 -5.8 c-0.08 -0.16 0.52 -0.44 0.6 -0.56 c1.92 -1.72 3.64 -3.48 4 -6.16 c0.4 -2.64 -0.2 -5.52 -1.92 -7.64 c-1.32 -1.56 -3.04 -2.48 -5.08 -2.6 c-1.24 -0.08 -2.44 0.04 -3.68 0 c-1.08 -0.04 -1.84 -0.04 -3.2 -0.04 c-0.64 0 -1.04 0.36 -1.08 1.04 l0 0.48 c-0.08 3.08 0 6.16 0.04 9.2 c0 4.64 -0.08 16.88 -0.08 18.64 c0 0.52 0.08 0.64 0.56 0.64 c0.28 0 0.6 0.04 0.88 0.04 c1.12 0 1.8 -0.04 2.96 -0.04 c0.88 0 0.56 -1.44 0.56 -3 z M305.854 21.4 l0.04 -4.04 c0.04 -0.6 -0.16 -1.8 0.4 -2.24 c0.76 -0.56 2.32 0 3 0.48 c2 1.36 1.84 4.72 0.76 6.6 c-0.52 0.88 -1.4 1.4 -2.4 1.68 c-0.6 0.16 -1.72 0.36 -1.76 -0.6 c0 -0.64 -0.04 -1.88 -0.04 -1.88 z M327.556 29.68 c-0.12 -4.56 -0.08 -9.4 -0.04 -13.92 c0 -1.4 -0.08 -2.92 -0.08 -4.32 c0 -1.52 -0.6 -1.44 -1.4 -1.48 c-1.16 -0.04 -1.68 -0.04 -2.84 -0.04 c-0.76 -0.04 -1.08 0.16 -1.08 0.92 c0 3.92 -0.12 15 -0.08 16.6 s0.2 8.88 0.12 10.48 c-0.04 0.56 0 1.12 0.04 1.68 c0.04 0.2 0.16 0.4 0.48 0.4 c1.32 -0.08 2.56 -0.08 3.88 -0.12 c0.48 -0.04 0.88 -0.16 1.08 -0.68 c0.04 -0.28 -0.08 -7.6 -0.08 -9.52 z M337.45799999999997 35.64 c0.04 1.24 0.04 2.48 0.08 3.72 c0 0.56 0.04 0.64 0.6 0.64 l3.6 0 c0.76 0 0.6 -1.28 0.56 -1.96 l0.12 -22.4 c0 -0.6 0.2 -0.8 1 -0.8 l3.52 0 c0.84 0 0.64 -1.44 0.64 -2.44 c0 -0.88 0.32 -2.4 -0.64 -2.4 c-0.68 0 -7.2 0 -9.88 0.04 c-1.32 0 -2.4 -0.04 -3.72 -0.04 c-1 0 -0.96 0.8 -0.96 2.56 c0 1.12 -0.04 2.24 0.92 2.24 c0.56 0 2.84 0 3.48 0.04 c0.4 0 0.68 0.12 0.76 0.56 c0 0.12 0.04 0.24 0.04 0.36 c0 2.88 -0.2 16.28 -0.12 19.88 z M357.44 35.64 c0.04 1.24 0.04 2.48 0.08 3.72 c0 0.56 0.04 0.64 0.6 0.64 l3.6 0 c0.76 0 0.6 -1.28 0.56 -1.96 l0.12 -22.4 c0 -0.6 0.2 -0.8 1 -0.8 l3.52 0 c0.84 0 0.64 -1.44 0.64 -2.44 c0 -0.88 0.32 -2.4 -0.64 -2.4 c-0.68 0 -7.2 0 -9.88 0.04 c-1.32 0 -2.4 -0.04 -3.72 -0.04 c-1 0 -0.96 0.8 -0.96 2.56 c0 1.12 -0.04 2.24 0.92 2.24 c0.56 0 2.84 0 3.48 0.04 c0.4 0 0.68 0.12 0.76 0.56 c0 0.12 0.04 0.24 0.04 0.36 c0 2.88 -0.2 16.28 -0.12 19.88 z M372.38200000000006 31.8 l-0.04 0 c0 1 -0.04 2.04 0 3.08 c0.04 1.28 0.12 2.56 0.2 3.84 c0 0.44 0.12 0.56 0.52 0.64 c0.84 0.2 1.64 0.24 2.48 0.24 c2.16 -0.08 4.32 0.08 6.48 0 c0.88 -0.04 1.28 0.04 2.16 -0.12 c0.8 -0.16 1.08 -0.6 1.08 -1.8 c-0.08 -0.76 -0.04 -1.08 -0.04 -2 c0 -1.32 -0.92 -1.76 -1.72 -1.72 c-0.56 0.04 -3.24 -0.04 -4.32 -0.04 c-1.8 0.04 -1.52 0.28 -1.52 -1.6 c0 -1.52 0.04 -3.48 0.04 -5.04 c0 -0.84 0.08 -1.12 0.88 -1.12 l5 0 c0.8 0.12 1.36 -0.44 1.36 -1.28 s0.08 -0.88 0.08 -1.72 l-0.12 -1.2 c-0.08 -0.68 -0.32 -0.92 -1 -0.92 c-0.44 0 -0.88 0.04 -1.32 0.08 c-1.72 0.12 -2.52 -0.12 -4.2 0 c-0.56 0 -0.64 -0.08 -0.68 -0.6 c-0.16 -1.56 0 -3.28 0.16 -4.84 c0.04 -0.64 0.2 -0.76 0.8 -0.8 l5.64 -0.04 c0.76 -0.08 1 -0.04 0.96 -0.8 c-0.08 -1.16 0.04 -2.36 -0.08 -3.52 c-0.08 -0.64 -0.28 -0.76 -1 -0.76 c-1.2 0.04 -1.48 0.04 -2.68 0.12 c-1.2 0.04 -6 0.04 -7.16 0.04 c-1.68 0 -1.8 -0.12 -1.84 1.92 c-0.08 1.6 -0.04 3.24 -0.04 4.88 c0 2.8 -0.16 12.84 -0.08 15.08 z M407.04400000000004 10.920000000000002 c0.12 0.56 0.04 27.2 0.04 27.88 c0 1.2 -0.44 1.16 -1.24 1.16 c-1.2 0 -2.88 0.2 -3.24 -0.2 c-0.32 -0.28 -6.24 -14.56 -7.08 -16.36 c-0.08 -0.16 -0.28 -0.56 -0.44 -0.48 c-0.2 0.08 -0.12 0.36 -0.12 0.52 c-0.04 1.4 0.2 13.48 0.2 15.4 c0 0.96 -0.04 1.12 -0.84 1.12 l-2 0 c-0.52 0 -1.16 -0.04 -1.68 0.04 c-0.4 0 -0.6 -0.12 -0.64 -0.52 l0 -3.16 c0.08 -3.36 0 -23.28 0 -24.76 c0 -1.28 0.36 -1.52 1.64 -1.52 c0.88 -0.04 1.76 -0.04 2.64 -0.04 c0.28 0 0.44 0.04 0.6 0.4 c1.08 2.52 5.68 14.08 6.4 15.48 c0.12 0.28 0.56 1.4 0.8 1.52 l0.04 0 c0.16 -0.16 0.12 -0.96 0.12 -1.2 c0 -0.6 -0.32 -14.64 -0.32 -14.92 c0 -0.4 -0.12 -0.76 0.08 -1.04 c0.12 -0.16 0.64 -0.2 0.84 -0.24 c1.12 -0.08 2.44 0.04 3.56 0 c0.56 0 0.52 0.4 0.64 0.92 z M430.24800000000005 10 l-6.08 0 c-0.52 0 -0.84 0.28 -0.84 0.8 c0 1.56 0.08 1.88 0.08 3.2 c0 0.56 0.44 0.56 2.72 0.56 c1.12 0 4.08 0 4.36 0.04 c0.08 0.04 0.24 0.2 0.24 0.32 c0 0.28 -0.08 0.56 -0.16 0.8 c-0.08 0.16 -0.12 0.32 -0.16 0.48 c-0.12 0.36 -7.68 22.4 -7.76 22.8 c-0.24 0.84 0.6 0.92 1.2 0.92 c1.08 0.04 12.2 0.08 13.28 0.08 c0.52 0 0.72 -0.4 0.72 -0.92 c0 -0.84 0.12 -1.72 0.12 -2.6 c0 -1.72 -1 -1.2 -2.92 -1.2 c-1.64 0 -3.08 -0.04 -4.92 -0.04 c-0.4 0 -0.76 -0.4 -0.64 -0.8 c0.4 -1.8 4.92 -14.8 5.76 -16.92 c0.32 -0.76 3.08 -7.4 1.56 -7.48 c-0.32 -0.04 -0.64 0 -0.96 0 c-1.88 0 -3.72 0 -5.6 -0.04 z M442.71000000000004 16.56 c0 4.04 0.04 8.12 0.12 12.12 c0.04 2.44 0 5.2 1.16 7.44 c1.48 2.88 4.76 4.16 7.92 3.96 c2.16 -0.16 4.16 -0.72 5.72 -2.32 c2.64 -2.84 2.12 -7.28 2.16 -10.92 c0.08 -5.24 0.2 -10.12 0.2 -15.4 c0 -0.88 -0.28 -1.36 -1.16 -1.4 c-1.08 -0.04 -2.16 0 -3.24 0.08 c-0.44 0 -0.8 0.4 -0.8 0.88 c0.04 3.84 0.12 7.72 0.08 11.6 c-0.04 3.32 0.4 7 -0.84 10.16 c-0.48 1.16 -1.56 2.04 -2.84 2.04 c-3.2 -0.08 -3.08 -3.88 -3.2 -6.12 c-0.24 -4.88 0.12 -9.88 0.24 -14.76 c0 -0.92 0 -1.84 0.04 -2.76 c0.04 -0.48 0.12 -1.08 -0.52 -1.12 l-0.72 0 c-1 0.08 -2 -0.04 -3 0 c-0.96 0.08 -1.28 0.36 -1.28 1.32 c0 1.72 -0.04 3.48 -0.04 5.2 z M469.692 37 c0 -1.04 0 -7.6 0.04 -8.12 c0.04 -0.12 0.12 -0.36 0.28 -0.36 s0.24 0.08 0.28 0.2 c1.6 3.12 3 6.24 4.44 9.28 c0.2 0.44 0.64 1.72 0.76 1.84 c0.16 0.24 0.44 0.16 0.68 0.16 l4.4 0.04 c0.52 0 0.64 -0.32 0.52 -0.76 c-0.32 -1.2 -2.6 -5.44 -3.12 -6.48 c-0.36 -0.8 -2.76 -5.44 -2.84 -5.8 c-0.08 -0.16 0.52 -0.44 0.6 -0.56 c1.92 -1.72 3.64 -3.48 4 -6.16 c0.4 -2.64 -0.2 -5.52 -1.92 -7.64 c-1.32 -1.56 -3.04 -2.48 -5.08 -2.6 c-1.24 -0.08 -2.44 0.04 -3.68 0 c-1.08 -0.04 -1.84 -0.04 -3.2 -0.04 c-0.64 0 -1.04 0.36 -1.08 1.04 l0 0.48 c-0.08 3.08 0 6.16 0.04 9.2 c0 4.64 -0.08 16.88 -0.08 18.64 c0 0.52 0.08 0.64 0.56 0.64 c0.28 0 0.6 0.04 0.88 0.04 c1.12 0 1.8 -0.04 2.96 -0.04 c0.88 0 0.56 -1.44 0.56 -3 z M469.692 21.4 l0.04 -4.04 c0.04 -0.6 -0.16 -1.8 0.4 -2.24 c0.76 -0.56 2.32 0 3 0.48 c2 1.36 1.84 4.72 0.76 6.6 c-0.52 0.88 -1.4 1.4 -2.4 1.68 c-0.6 0.16 -1.72 0.36 -1.76 -0.6 c0 -0.64 -0.04 -1.88 -0.04 -1.88 z"></path></g><g id="SvgjsG5846" featurekey="nameFeature-1" transform="matrix(0.6672377210856189,0,0,0.6672377210856189,119.65832117170117,44.487762234795674)" fill="#0bcc8b"><path d="M7.44 32.76 c0 -1.4 -0.2 -5.2 -0.16 -6 c0 -0.12 0.08 -0.28 0.12 -0.28 c0.08 0 0.24 0.08 0.28 0.12 c1.28 1.68 7.28 13.32 8 13.36 c0.2 0.04 0.4 0.04 0.6 0.04 c1.36 -0.08 2.56 0 3.92 0 c1.4 0 0.48 -1.36 0.24 -1.72 c-0.36 -0.52 -5.12 -9.04 -5.4 -9.56 c-0.8 -1.36 -1.48 -2.84 -2.28 -4.16 c-0.08 -0.16 -0.16 -0.4 -0.12 -0.56 c0.08 -0.48 0.2 -0.92 0.4 -1.36 c0.96 -1.88 1.96 -3.8 3.12 -5.6 c1.28 -2.04 2 -3.32 3.04 -5.16 c0.24 -0.44 0.4 -0.92 0.56 -1.44 c0.04 -0.2 -0.12 -0.4 -0.36 -0.4 c-0.76 -0.04 -3.52 0 -4.4 0 c-0.4 0 -0.8 0.08 -1 0.44 c-0.52 1 -5.88 10.8 -6.4 11.68 c-0.04 0.08 -0.16 0.12 -0.28 0.12 c0 0 -0.08 -0.12 -0.08 -0.2 c-0.04 -2.24 0.36 -9.56 0.28 -11.04 c-0.04 -0.88 -0.2 -0.96 -1.08 -1 c-0.96 -0.04 -2.28 -0.04 -3.24 -0.04 c-0.88 0 -0.96 0.48 -1.08 1.12 c-0.04 0.12 -0.04 3.88 -0.04 5.56 c0 2.44 -0.2 17.72 0.08 22.56 c0 0.48 0.12 0.76 0.52 0.76 c1.08 -0.08 2.68 0 3.76 0 c0.76 0 0.88 -0.08 0.88 -1.36 c0 -1.72 0.16 -3.28 0.16 -5.4 c0 -0.16 -0.04 -0.32 -0.04 -0.48 z M25.702 13.920000000000002 c-0.04 2.48 0.2 20.6 0.16 21.92 c0 1.24 0 2.48 0.04 3.72 c0 0.2 0.12 0.4 0.32 0.4 c2.8 0.12 5.56 -0.12 8.36 -0.08 c0.92 0.04 1.84 0 2.72 0 c0.88 -0.04 0.96 -0.4 0.92 -1.12 c-0.04 -1.12 -0.04 -2.12 -0.04 -3.2 c-0.04 -0.56 -0.36 -0.76 -0.84 -0.76 c-1.64 0.04 -3.28 -0.04 -4.92 0.04 c-0.28 0.04 -0.56 0.04 -0.84 0.04 c-0.48 -0.04 -0.6 -0.16 -0.64 -0.68 l0 -0.6 c-0.12 -3.32 0.12 -6.76 0.12 -10.08 c-0.04 -2.8 0 -5.32 -0.04 -7.8 c0 -1.08 0 -2.16 -0.04 -3.2 c-0.04 -0.64 0 -1.32 -0.16 -1.96 c-0.08 -0.24 -0.2 -0.56 -0.48 -0.56 l-3.76 0 c-0.64 0 -0.84 0.44 -0.88 1.08 l0 2.84 z M48.483999999999995 29.68 c-0.12 -4.56 -0.08 -9.4 -0.04 -13.92 c0 -1.4 -0.08 -2.92 -0.08 -4.32 c0 -1.52 -0.6 -1.44 -1.4 -1.48 c-1.16 -0.04 -1.68 -0.04 -2.84 -0.04 c-0.76 -0.04 -1.08 0.16 -1.08 0.92 c0 3.92 -0.12 15 -0.08 16.6 s0.2 8.88 0.12 10.48 c-0.04 0.56 0 1.12 0.04 1.68 c0.04 0.2 0.16 0.4 0.48 0.4 c1.32 -0.08 2.56 -0.08 3.88 -0.12 c0.48 -0.04 0.88 -0.16 1.08 -0.68 c0.04 -0.28 -0.08 -7.6 -0.08 -9.52 z M59.105999999999995 10.04 c-0.4 0 -0.8 0.04 -1.2 0.04 c-0.6 0 -1.32 -0.12 -1.44 0.68 c-0.4 3.4 -0.76 7.16 -1.16 10.56 c-0.68 5.6 -1.32 11.36 -1.96 16.96 c-0.08 0.76 -0.16 1.48 0.68 1.64 c1.28 0.08 2.24 0.08 3.32 0.04 c0.4 0.04 0.84 0.08 0.96 -0.4 c0.08 -0.2 0.08 -0.4 0.08 -0.6 c0.08 -0.92 1.28 -12.44 1.76 -12.44 c0.76 0 2.76 9.36 3.72 12.8 c0.12 0.48 0.36 0.68 0.84 0.64 c1 -0.08 1.96 0 2.96 0 s0.8 -0.64 1 -1.48 c0.24 -0.92 2.56 -12 3.12 -12 c0.64 0 1.96 12.84 2.08 13.12 c0.24 0.56 0.92 0.32 1.4 0.32 c0.72 0 1.4 0.08 2.32 0 c0.68 -0.08 1.36 0.16 1.4 -0.72 c0 -0.2 -0.08 -0.4 -0.12 -0.6 c-0.16 -1 -0.36 -2.2 -0.56 -3.2 c-0.28 -2.08 -0.68 -4.12 -0.96 -6.2 c-0.4 -3.28 -0.8 -6.56 -1.16 -9.84 c-0.28 -2.8 -0.68 -5.96 -0.92 -8.76 c-0.08 -0.92 -1.12 -0.6 -1.76 -0.6 l-2.76 0 c-0.44 0 -0.64 0.84 -0.72 1.28 c-0.24 1.12 -3 15.56 -3.92 15.56 s-3.88 -13.2 -4.4 -16.08 c-0.12 -0.64 -0.56 -0.84 -1.16 -0.84 z M87.40799999999999 39.68 c0.12 0.04 0.48 0.04 0.84 0.04 c0.8 0 1.04 -2.88 1.12 -3.48 c0.04 -0.48 0.16 -0.52 0.56 -0.6 c2 -0.24 3 -0.08 5 -0.04 c0.44 0 0.68 0.2 0.8 0.56 l0.28 0.92 c0.24 0.68 0.44 1.52 0.68 2.2 c0.16 0.48 0.2 0.44 0.68 0.44 c0.64 0 2.96 0 3.64 -0.04 c0.92 0 0.28 -1.88 0.16 -2.2 c-0.36 -1.12 -0.44 -2.28 -0.8 -3.4 c-0.16 -0.48 -4.72 -22.12 -4.92 -23.32 c-0.28 -0.72 -0.04 -0.76 -0.68 -0.76 c-1.36 0 -2.8 0.08 -4.2 0 c-0.56 0 -0.52 0.16 -0.6 0.76 c-0.08 0.56 -1.52 6.92 -2.08 9.56 c-0.72 3.32 -1.36 6.52 -2.16 9.8 c-0.28 1.16 -2.2 9.52 -1.96 9.56 c0.12 0.08 0.32 0.04 0.48 0.04 c1 0 1.92 0 3.16 -0.04 z M92.648 30.6 l-0.84 0 c-1.12 0 -1.16 0 -0.88 -1.16 c0.2 -0.88 1.28 -5.64 1.52 -6.8 c0.04 -0.08 0.12 -0.16 0.16 -0.16 c0.08 0 0.16 0.08 0.2 0.12 c0.16 0.48 0.32 1.68 0.48 2.16 c0.36 1.52 0.6 2.8 0.96 4.44 c0.36 1.44 0.2 1.44 -0.52 1.44 c-0.36 0 -0.72 -0.04 -1.08 -0.04 z M123.26999999999998 10.920000000000002 c0.12 0.56 0.04 27.2 0.04 27.88 c0 1.2 -0.44 1.16 -1.24 1.16 c-1.2 0 -2.88 0.2 -3.24 -0.2 c-0.32 -0.28 -6.24 -14.56 -7.08 -16.36 c-0.08 -0.16 -0.28 -0.56 -0.44 -0.48 c-0.2 0.08 -0.12 0.36 -0.12 0.52 c-0.04 1.4 0.2 13.48 0.2 15.4 c0 0.96 -0.04 1.12 -0.84 1.12 l-2 0 c-0.52 0 -1.16 -0.04 -1.68 0.04 c-0.4 0 -0.6 -0.12 -0.64 -0.52 l0 -3.16 c0.08 -3.36 0 -23.28 0 -24.76 c0 -1.28 0.36 -1.52 1.64 -1.52 c0.88 -0.04 1.76 -0.04 2.64 -0.04 c0.28 0 0.44 0.04 0.6 0.4 c1.08 2.52 5.68 14.08 6.4 15.48 c0.12 0.28 0.56 1.4 0.8 1.52 l0.04 0 c0.16 -0.16 0.12 -0.96 0.12 -1.2 c0 -0.6 -0.32 -14.64 -0.32 -14.92 c0 -0.4 -0.12 -0.76 0.08 -1.04 c0.12 -0.16 0.64 -0.2 0.84 -0.24 c1.12 -0.08 2.44 0.04 3.56 0 c0.56 0 0.52 0.4 0.64 0.92 z M128.13199999999998 31.8 l-0.04 0 c0 1 -0.04 2.04 0 3.08 c0.04 1.28 0.12 2.56 0.2 3.84 c0 0.44 0.12 0.56 0.52 0.64 c0.84 0.2 1.64 0.24 2.48 0.24 c2.16 -0.08 4.32 0.08 6.48 0 c0.88 -0.04 1.28 0.04 2.16 -0.12 c0.8 -0.16 1.08 -0.6 1.08 -1.8 c-0.08 -0.76 -0.04 -1.08 -0.04 -2 c0 -1.32 -0.92 -1.76 -1.72 -1.72 c-0.56 0.04 -3.24 -0.04 -4.32 -0.04 c-1.8 0.04 -1.52 0.28 -1.52 -1.6 c0 -1.52 0.04 -3.48 0.04 -5.04 c0 -0.84 0.08 -1.12 0.88 -1.12 l5 0 c0.8 0.12 1.36 -0.44 1.36 -1.28 s0.08 -0.88 0.08 -1.72 l-0.12 -1.2 c-0.08 -0.68 -0.32 -0.92 -1 -0.92 c-0.44 0 -0.88 0.04 -1.32 0.08 c-1.72 0.12 -2.52 -0.12 -4.2 0 c-0.56 0 -0.64 -0.08 -0.68 -0.6 c-0.16 -1.56 0 -3.28 0.16 -4.84 c0.04 -0.64 0.2 -0.76 0.8 -0.8 l5.64 -0.04 c0.76 -0.08 1 -0.04 0.96 -0.8 c-0.08 -1.16 0.04 -2.36 -0.08 -3.52 c-0.08 -0.64 -0.28 -0.76 -1 -0.76 c-1.2 0.04 -1.48 0.04 -2.68 0.12 c-1.2 0.04 -6 0.04 -7.16 0.04 c-1.68 0 -1.8 -0.12 -1.84 1.92 c-0.08 1.6 -0.04 3.24 -0.04 4.88 c0 2.8 -0.16 12.84 -0.08 15.08 z M145.754 16.56 c0 4.04 0.04 8.12 0.12 12.12 c0.04 2.44 0 5.2 1.16 7.44 c1.48 2.88 4.76 4.16 7.92 3.96 c2.16 -0.16 4.16 -0.72 5.72 -2.32 c2.64 -2.84 2.12 -7.28 2.16 -10.92 c0.08 -5.24 0.2 -10.12 0.2 -15.4 c0 -0.88 -0.28 -1.36 -1.16 -1.4 c-1.08 -0.04 -2.16 0 -3.24 0.08 c-0.44 0 -0.8 0.4 -0.8 0.88 c0.04 3.84 0.12 7.72 0.08 11.6 c-0.04 3.32 0.4 7 -0.84 10.16 c-0.48 1.16 -1.56 2.04 -2.84 2.04 c-3.2 -0.08 -3.08 -3.88 -3.2 -6.12 c-0.24 -4.88 0.12 -9.88 0.24 -14.76 c0 -0.92 0 -1.84 0.04 -2.76 c0.04 -0.48 0.12 -1.08 -0.52 -1.12 l-0.72 0 c-1 0.08 -2 -0.04 -3 0 c-0.96 0.08 -1.28 0.36 -1.28 1.32 c0 1.72 -0.04 3.48 -0.04 5.2 z M172.856 35.64 c0.04 1.24 0.04 2.48 0.08 3.72 c0 0.56 0.04 0.64 0.6 0.64 l3.6 0 c0.76 0 0.6 -1.28 0.56 -1.96 l0.12 -22.4 c0 -0.6 0.2 -0.8 1 -0.8 l3.52 0 c0.84 0 0.64 -1.44 0.64 -2.44 c0 -0.88 0.32 -2.4 -0.64 -2.4 c-0.68 0 -7.2 0 -9.88 0.04 c-1.32 0 -2.4 -0.04 -3.72 -0.04 c-1 0 -0.96 0.8 -0.96 2.56 c0 1.12 -0.04 2.24 0.92 2.24 c0.56 0 2.84 0 3.48 0.04 c0.4 0 0.68 0.12 0.76 0.56 c0 0.12 0.04 0.24 0.04 0.36 c0 2.88 -0.2 16.28 -0.12 19.88 z M192.718 37 c0 -1.04 0 -7.6 0.04 -8.12 c0.04 -0.12 0.12 -0.36 0.28 -0.36 s0.24 0.08 0.28 0.2 c1.6 3.12 3 6.24 4.44 9.28 c0.2 0.44 0.64 1.72 0.76 1.84 c0.16 0.24 0.44 0.16 0.68 0.16 l4.4 0.04 c0.52 0 0.64 -0.32 0.52 -0.76 c-0.32 -1.2 -2.6 -5.44 -3.12 -6.48 c-0.36 -0.8 -2.76 -5.44 -2.84 -5.8 c-0.08 -0.16 0.52 -0.44 0.6 -0.56 c1.92 -1.72 3.64 -3.48 4 -6.16 c0.4 -2.64 -0.2 -5.52 -1.92 -7.64 c-1.32 -1.56 -3.04 -2.48 -5.08 -2.6 c-1.24 -0.08 -2.44 0.04 -3.68 0 c-1.08 -0.04 -1.84 -0.04 -3.2 -0.04 c-0.64 0 -1.04 0.36 -1.08 1.04 l0 0.48 c-0.08 3.08 0 6.16 0.04 9.2 c0 4.64 -0.08 16.88 -0.08 18.64 c0 0.52 0.08 0.64 0.56 0.64 c0.28 0 0.6 0.04 0.88 0.04 c1.12 0 1.8 -0.04 2.96 -0.04 c0.88 0 0.56 -1.44 0.56 -3 z M192.718 21.4 l0.04 -4.04 c0.04 -0.6 -0.16 -1.8 0.4 -2.24 c0.76 -0.56 2.32 0 3 0.48 c2 1.36 1.84 4.72 0.76 6.6 c-0.52 0.88 -1.4 1.4 -2.4 1.68 c-0.6 0.16 -1.72 0.36 -1.76 -0.6 c0 -0.64 -0.04 -1.88 -0.04 -1.88 z M212.57999999999998 39.68 c0.12 0.04 0.48 0.04 0.84 0.04 c0.8 0 1.04 -2.88 1.12 -3.48 c0.04 -0.48 0.16 -0.52 0.56 -0.6 c2 -0.24 3 -0.08 5 -0.04 c0.44 0 0.68 0.2 0.8 0.56 l0.28 0.92 c0.24 0.68 0.44 1.52 0.68 2.2 c0.16 0.48 0.2 0.44 0.68 0.44 c0.64 0 2.96 0 3.64 -0.04 c0.92 0 0.28 -1.88 0.16 -2.2 c-0.36 -1.12 -0.44 -2.28 -0.8 -3.4 c-0.16 -0.48 -4.72 -22.12 -4.92 -23.32 c-0.28 -0.72 -0.04 -0.76 -0.68 -0.76 c-1.36 0 -2.8 0.08 -4.2 0 c-0.56 0 -0.52 0.16 -0.6 0.76 c-0.08 0.56 -1.52 6.92 -2.08 9.56 c-0.72 3.32 -1.36 6.52 -2.16 9.8 c-0.28 1.16 -2.2 9.52 -1.96 9.56 c0.12 0.08 0.32 0.04 0.48 0.04 c1 0 1.92 0 3.16 -0.04 z M217.81999999999996 30.6 l-0.84 0 c-1.12 0 -1.16 0 -0.88 -1.16 c0.2 -0.88 1.28 -5.64 1.52 -6.8 c0.04 -0.08 0.12 -0.16 0.16 -0.16 c0.08 0 0.16 0.08 0.2 0.12 c0.16 0.48 0.32 1.68 0.48 2.16 c0.36 1.52 0.6 2.8 0.96 4.44 c0.36 1.44 0.2 1.44 -0.52 1.44 c-0.36 0 -0.72 -0.04 -1.08 -0.04 z M231.402 13.920000000000002 c-0.04 2.48 0.2 20.6 0.16 21.92 c0 1.24 0 2.48 0.04 3.72 c0 0.2 0.12 0.4 0.32 0.4 c2.8 0.12 5.56 -0.12 8.36 -0.08 c0.92 0.04 1.84 0 2.72 0 c0.88 -0.04 0.96 -0.4 0.92 -1.12 c-0.04 -1.12 -0.04 -2.12 -0.04 -3.2 c-0.04 -0.56 -0.36 -0.76 -0.84 -0.76 c-1.64 0.04 -3.28 -0.04 -4.92 0.04 c-0.28 0.04 -0.56 0.04 -0.84 0.04 c-0.48 -0.04 -0.6 -0.16 -0.64 -0.68 l0 -0.6 c-0.12 -3.32 0.12 -6.76 0.12 -10.08 c-0.04 -2.8 0 -5.32 -0.04 -7.8 c0 -1.08 0 -2.16 -0.04 -3.2 c-0.04 -0.64 0 -1.32 -0.16 -1.96 c-0.08 -0.24 -0.2 -0.56 -0.48 -0.56 l-3.76 0 c-0.64 0 -0.84 0.44 -0.88 1.08 l0 2.84 z M254.184 29.68 c-0.12 -4.56 -0.08 -9.4 -0.04 -13.92 c0 -1.4 -0.08 -2.92 -0.08 -4.32 c0 -1.52 -0.6 -1.44 -1.4 -1.48 c-1.16 -0.04 -1.68 -0.04 -2.84 -0.04 c-0.76 -0.04 -1.08 0.16 -1.08 0.92 c0 3.92 -0.12 15 -0.08 16.6 s0.2 8.88 0.12 10.48 c-0.04 0.56 0 1.12 0.04 1.68 c0.04 0.2 0.16 0.4 0.48 0.4 c1.32 -0.08 2.56 -0.08 3.88 -0.12 c0.48 -0.04 0.88 -0.16 1.08 -0.68 c0.04 -0.28 -0.08 -7.6 -0.08 -9.52 z M264.08599999999996 35.64 c0.04 1.24 0.04 2.48 0.08 3.72 c0 0.56 0.04 0.64 0.6 0.64 l3.6 0 c0.76 0 0.6 -1.28 0.56 -1.96 l0.12 -22.4 c0 -0.6 0.2 -0.8 1 -0.8 l3.52 0 c0.84 0 0.64 -1.44 0.64 -2.44 c0 -0.88 0.32 -2.4 -0.64 -2.4 c-0.68 0 -7.2 0 -9.88 0.04 c-1.32 0 -2.4 -0.04 -3.72 -0.04 c-1 0 -0.96 0.8 -0.96 2.56 c0 1.12 -0.04 2.24 0.92 2.24 c0.56 0 2.84 0 3.48 0.04 c0.4 0 0.68 0.12 0.76 0.56 c0 0.12 0.04 0.24 0.04 0.36 c0 2.88 -0.2 16.28 -0.12 19.88 z M282.668 39.68 c0.12 0.04 0.48 0.04 0.84 0.04 c0.8 0 1.04 -2.88 1.12 -3.48 c0.04 -0.48 0.16 -0.52 0.56 -0.6 c2 -0.24 3 -0.08 5 -0.04 c0.44 0 0.68 0.2 0.8 0.56 l0.28 0.92 c0.24 0.68 0.44 1.52 0.68 2.2 c0.16 0.48 0.2 0.44 0.68 0.44 c0.64 0 2.96 0 3.64 -0.04 c0.92 0 0.28 -1.88 0.16 -2.2 c-0.36 -1.12 -0.44 -2.28 -0.8 -3.4 c-0.16 -0.48 -4.72 -22.12 -4.92 -23.32 c-0.28 -0.72 -0.04 -0.76 -0.68 -0.76 c-1.36 0 -2.8 0.08 -4.2 0 c-0.56 0 -0.52 0.16 -0.6 0.76 c-0.08 0.56 -1.52 6.92 -2.08 9.56 c-0.72 3.32 -1.36 6.52 -2.16 9.8 c-0.28 1.16 -2.2 9.52 -1.96 9.56 c0.12 0.08 0.32 0.04 0.48 0.04 c1 0 1.92 0 3.16 -0.04 z M287.908 30.6 l-0.84 0 c-1.12 0 -1.16 0 -0.88 -1.16 c0.2 -0.88 1.28 -5.64 1.52 -6.8 c0.04 -0.08 0.12 -0.16 0.16 -0.16 c0.08 0 0.16 0.08 0.2 0.12 c0.16 0.48 0.32 1.68 0.48 2.16 c0.36 1.52 0.6 2.8 0.96 4.44 c0.36 1.44 0.2 1.44 -0.52 1.44 c-0.36 0 -0.72 -0.04 -1.08 -0.04 z M306.57 35.64 c0.04 1.24 0.04 2.48 0.08 3.72 c0 0.56 0.04 0.64 0.6 0.64 l3.6 0 c0.76 0 0.6 -1.28 0.56 -1.96 l0.12 -22.4 c0 -0.6 0.2 -0.8 1 -0.8 l3.52 0 c0.84 0 0.64 -1.44 0.64 -2.44 c0 -0.88 0.32 -2.4 -0.64 -2.4 c-0.68 0 -7.2 0 -9.88 0.04 c-1.32 0 -2.4 -0.04 -3.72 -0.04 c-1 0 -0.96 0.8 -0.96 2.56 c0 1.12 -0.04 2.24 0.92 2.24 c0.56 0 2.84 0 3.48 0.04 c0.4 0 0.68 0.12 0.76 0.56 c0 0.12 0.04 0.24 0.04 0.36 c0 2.88 -0.2 16.28 -0.12 19.88 z"></path></g></svg>